Coordinates
version=1
nRows=32
nColumns=22
inDegrees=yes

Units are S.I. units (second, meters, Newtons, ...)
If the header above contains a line with 'inDegrees', this indicates whether rotational values are in degrees (yes) or radians (no).

endheader
time	pelvis_tilt	pelvis_list	pelvis_rotation	pelvis_tx	pelvis_ty	pelvis_tz	hip_flexion_r	hip_adduction_r	hip_rotation_r	knee_angle_r	ankle_angle_r	subtalar_angle_r	hip_flexion_l	hip_adduction_l	hip_rotation_l	knee_angle_l	ankle_angle_l	subtalar_angle_l	lumbar_extension	lumbar_bending	lumbar_rotation
      0.01000000	      2.45297590	     -0.54236055	      1.84465308	      0.13368749	      1.08925074	      1.16385128	     -3.56298906	      2.01996904	     -4.27362454	    -10.30950233	     12.38210052	     -1.34175518	     -3.51073327	      0.23565824	      0.56958634	    -10.34300110	     11.69180841	     -4.23330145	     -3.01027685	     -1.40317502	     -4.91229898
      0.02000000	      2.44902571	     -0.54002118	      1.85152014	      0.13372676	      1.08924867	      1.16380962	     -3.55961818	      2.01701227	     -4.27012020	    -10.31242038	     12.38166859	     -1.34183747	     -3.50982082	      0.23985189	      0.56926886	    -10.33936042	     11.69307682	     -4.23440888	     -3.01605058	     -1.39333444	     -4.91239327
      0.03000000	      2.44572782	     -0.53648218	      1.85539287	      0.13374592	      1.08924486	      1.16377532	     -3.54191884	      2.01217245	     -4.25059813	    -10.34410227	     12.38365542	     -1.34252683	     -3.51112138	      0.24553919	      0.58087161	    -10.33209379	     11.69751191	     -4.24094881	     -3.02907033	     -1.38222827	     -4.93488203
      0.04000000	      2.44006974	     -0.52897447	      1.86451245	      0.13377668	      1.08923693	      1.16372980	     -3.52428104	      2.00319267	     -4.23797919	    -10.37273188	     12.39546329	     -1.34365849	     -3.50882263	      0.25550997	      0.59467416	    -10.32711074	     11.69824839	     -4.24832352	     -3.03987364	     -1.37548841	     -4.95156547
      0.05000000	      2.43366350	     -0.51822783	      1.87509466	      0.13381339	      1.08922790	      1.16368798	     -3.50340734	      1.99096495	     -4.22954198	    -10.40630566	     12.41164558	     -1.34498550	     -3.50598081	      0.26858999	      0.60848055	    -10.32247080	     11.69634991	     -4.25524208	     -3.05025272	     -1.37287186	     -4.96933396
      0.06000000	      2.41721766	     -0.49545830	      1.88774914	      0.13386195	      1.08919781	      1.16363173	     -3.46777703	      1.96331122	     -4.24328414	    -10.45025324	     12.45488466	     -1.34773916	     -3.49245754	      0.29649209	      0.63416719	    -10.31972686	     11.68745442	     -4.26956811	     -3.04784171	     -1.38271177	     -4.98472375
      0.07000000	      2.41314177	     -0.48869599	      1.90035308	      0.13391294	      1.08918864	      1.16362504	     -3.44877788	      1.95802495	     -4.23078649	    -10.48535117	     12.45725178	     -1.34852758	     -3.49221780	      0.30167300	      0.63841268	    -10.31523456	     11.68656685	     -4.27208353	     -3.06105992	     -1.38239488	     -5.00177215
      0.08000000	      2.40981159	     -0.47931285	      1.90993446	      0.13396331	      1.08917556	      1.16362152	     -3.42579101	      1.94891838	     -4.22211878	    -10.53006157	     12.47044969	     -1.35046272	     -3.49302840	      0.31051758	      0.64733573	    -10.31128270	     11.68576369	     -4.27387693	     -3.07596262	     -1.38281374	     -5.01680405
      0.09000000	      2.40583102	     -0.46688755	      1.91845337	      0.13402064	      1.08915790	      1.16362300	     -3.40004308	      1.93625956	     -4.22012611	    -10.57943955	     12.49239889	     -1.35359909	     -3.49425330	      0.32282895	      0.65646052	    -10.30659946	     11.68501090	     -4.27515607	     -3.08918256	     -1.38682042	     -5.02882714
      0.10000000	      2.39101775	     -0.43975561	      1.92804450	      0.13408950	      1.08911771	      1.16361896	     -3.36095542	      1.90557750	     -4.24469887	    -10.63463758	     12.54665960	     -1.36138267	     -3.48402321	      0.35171569	      0.66805655	    -10.30301670	     11.67969577	     -4.27679569	     -3.08799545	     -1.40851912	     -5.03020125
      0.11000000	      2.38802220	     -0.43221779	      1.93514875	      0.13416619	      1.08909997	      1.16363270	     -3.34211737	      1.89899141	     -4.23654506	    -10.67377031	     12.55112631	     -1.36381762	     -3.48612238	      0.35810263	      0.67160032	    -10.30121052	     11.68011858	     -4.27647284	     -3.09855225	     -1.40634943	     -5.04315088
      0.12000000	      2.38411586	     -0.42013862	      1.94154695	      0.13423998	      1.08907596	      1.16364964	     -3.31835336	      1.88670149	     -4.24277545	    -10.72085091	     12.57422189	     -1.36852231	     -3.48709393	      0.36944325	      0.67590045	    -10.29898630	     11.68356980	     -4.27497443	     -3.10916723	     -1.40934241	     -5.04549004
      0.13000000	      2.38095393	     -0.40861092	      1.95009800	      0.13432322	      1.08905076	      1.16368183	     -3.29823989	      1.87675615	     -4.24923395	    -10.76349702	     12.59511873	     -1.37271211	     -3.48858647	      0.37868967	      0.67863320	    -10.29783704	     11.68871663	     -4.27286121	     -3.11873013	     -1.41584347	     -5.04729595
      0.14000000	      2.37700432	     -0.40359789	      1.96236064	      0.13444265	      1.08902959	      1.16370634	     -3.29696862	      1.87525513	     -4.24823177	    -10.77144497	     12.59763389	     -1.37326456	     -3.49019542	      0.38040869	      0.67691683	    -10.29673170	     11.68985787	     -4.27256551	     -3.12077079	     -1.41319187	     -5.04399630
      0.15000000	      2.37180494	     -0.38207882	      1.97187650	      0.13453210	      1.08899114	      1.16373662	     -3.26750310	      1.85251092	     -4.28566368	    -10.82996157	     12.65175392	     -1.38287949	     -3.48769300	      0.40100044	      0.68362413	    -10.30038097	     11.70694396	     -4.26582025	     -3.12754524	     -1.43139133	     -5.03822829
      0.16000000	      2.36895058	     -0.37736429	      1.98238052	      0.13467278	      1.08896944	      1.16377301	     -3.26879464	      1.85174368	     -4.28357196	    -10.83816804	     12.65219699	     -1.38332779	     -3.49054252	      0.40200993	      0.68331495	    -10.30210396	     11.70748043	     -4.26546730	     -3.12602559	     -1.42806345	     -5.03602869
      0.17000000	      2.36844755	     -0.36689346	      1.99316875	      0.13478359	      1.08894266	      1.16381346	     -3.25426850	      1.84304516	     -4.30455936	    -10.87970611	     12.67780748	     -1.39063221	     -3.49108572	      0.41001794	      0.69886865	    -10.31201882	     11.72204002	     -4.26135614	     -3.13431769	     -1.43235367	     -5.03096127
      0.18000000	      2.36506355	     -0.36199539	      2.00464893	      0.13494937	      1.08891877	      1.16386162	     -3.25792991	      1.84298694	     -4.30466467	    -10.88546059	     12.67982418	     -1.39130544	     -3.49466820	      0.41010996	      0.69789014	    -10.31369574	     11.72314636	     -4.26102238	     -3.12935052	     -1.43103371	     -5.02771351
      0.19000000	      2.35725399	     -0.34609849	      2.02809808	      0.13511365	      1.08887765	      1.16389535	     -3.24853761	      1.82967669	     -4.34914088	    -10.90950854	     12.72441104	     -1.40762574	     -3.49103210	      0.42222250	      0.71965357	    -10.32027635	     11.74649430	     -4.25152502	     -3.12244396	     -1.44408127	     -5.03311443
      0.20000000	      2.35353326	     -0.34145607	      2.03702852	      0.13530332	      1.08885277	      1.16395646	     -3.25372739	      1.83017229	     -4.34891108	    -10.91426376	     12.72526681	     -1.40827759	     -3.49524986	      0.42184477	      0.71976056	    -10.32374876	     11.74674461	     -4.25109058	     -3.11583160	     -1.44203417	     -5.02991601
      0.21000000	      2.34889245	     -0.33685149	      2.04734412	      0.13550672	      1.08882605	      1.16402263	     -3.25951108	      1.83114493	     -4.35045905	    -10.91806549	     12.72834635	     -1.40937491	     -3.49952528	      0.42110682	      0.72034839	    -10.32664457	     11.74839712	     -4.25053507	     -3.10836596	     -1.44108289	     -5.02605906
      0.22000000	      2.33646296	     -0.33180271	      2.06697591	      0.13573672	      1.08878433	      1.16409320	     -3.26662853	      1.83324276	     -4.37524521	    -10.90543394	     12.75630450	     -1.41764233	     -3.49903182	      0.41923664	      0.73106394	    -10.32411019	     11.76486486	     -4.24652052	     -3.09197745	     -1.44621685	     -5.01977204
      0.23000000	      2.32122300	     -0.32482595	      2.09211123	      0.13596707	      1.08873273	      1.16414086	     -3.26331614	      1.83172693	     -4.40408989	    -10.91027165	     12.78996044	     -1.43639919	     -3.49370951	      0.42104456	      0.75927057	    -10.32566405	     11.79190694	     -4.23579465	     -3.07275273	     -1.44528080	     -5.04851027
      0.24000000	      2.31473115	     -0.32019961	      2.09918918	      0.13619451	      1.08870187	      1.16422179	     -3.26791721	      1.83273447	     -4.40482988	    -10.91464963	     12.79011658	     -1.43759637	     -3.49714819	      0.42014590	      0.76042628	    -10.33012872	     11.79203609	     -4.23496325	     -3.06765041	     -1.44324198	     -5.04706717
      0.25000000	      2.28042949	     -0.31938141	      2.13888034	      0.13642127	      1.08862336	      1.16426866	     -3.24589914	      1.83909176	     -4.45315976	    -10.91523705	     12.81583182	     -1.47124679	     -3.46282266	      0.41419683	      0.80721740	    -10.34568293	     11.81908344	     -4.21398646	     -3.03317532	     -1.43957321	     -5.08408209
      0.26000000	      2.26543045	     -0.31615812	      2.14860616	      0.13667658	      1.08857736	      1.16436008	     -3.24731128	      1.84245618	     -4.46369990	    -10.91038172	     12.82481928	     -1.47564154	     -3.45986368	      0.41068943	      0.80696535	    -10.34654917	     11.82345967	     -4.21144257	     -3.01931572	     -1.43937015	     -5.07904601
      0.27000000	      2.24271994	     -0.31656785	      2.16468802	      0.13692412	      1.08851047	      1.16443803	     -3.23354370	      1.84853401	     -4.48487657	    -10.91948378	     12.85837544	     -1.48398976	     -3.44440311	      0.40414479	      0.82495588	    -10.35517793	     11.84339354	     -4.20756940	     -2.99934477	     -1.43238845	     -5.08687855
      0.28000000	      2.21646886	     -0.31368001	      2.18378395	      0.13715223	      1.08843715	      1.16451936	     -3.20596178	      1.85044567	     -4.51649701	    -10.94623985	     12.88626582	     -1.48586176	     -3.41922804	      0.40052405	      0.84223539	    -10.37237766	     11.86172600	     -4.20473225	     -2.98184512	     -1.43203156	     -5.09582247
      0.29000000	      2.20765754	     -0.30912946	      2.18742939	      0.13742572	      1.08839430	      1.16460665	     -3.20906118	      1.85043087	     -4.51749326	    -10.95268546	     12.88951693	     -1.48531168	     -3.42323119	      0.40004371	      0.84308750	    -10.37676181	     11.86256908	     -4.20468510	     -2.97725358	     -1.42809463	     -5.09554170
      0.30000000	      2.18966726	     -0.30949633	      2.19858007	      0.13767437	      1.08831992	      1.16469621	     -3.17732606	      1.85346689	     -4.55303738	    -11.00673107	     12.96660703	     -1.47311883	     -3.41519029	      0.39297526	      0.85768217	    -10.38109370	     11.88550677	     -4.20600581	     -2.97066799	     -1.42259860	     -5.09662001
      0.31000000	      2.17007336	     -0.29654711	      2.20794620	      0.13793393	      1.08824063	      1.16476077	     -3.13681949	      1.83891073	     -4.59015244	    -11.07648013	     13.03904575	     -1.44350099	     -3.40110609	      0.40296382	      0.86909449	    -10.39695315	     11.90833177	     -4.20809590	     -2.96101439	     -1.42589142	     -5.11202412
      0.32000000	      2.11286551	     -0.26647757	      2.23194301	      0.13821958	      1.08810808	      1.16479722	     -3.05310208	      1.80240926	     -4.64867399	    -11.15781534	     13.13187055	     -1.32565548	     -3.34365918	      0.43225890	      0.89068484	    -10.41944320	     11.91971838	     -4.20913038	     -2.90554666	     -1.45276813	     -5.13512441
